mtllib MissionFlag.mtl
g object_012EB7EC
v 0.265165 0 0
v 0 0 -0.265165
v 0.265165 15 0
v 0 15 -0.265165
v 0 0 0.265165
v -0.265165 0 0
v 0 15 0.265165
v -0.265165 15 0
v 0 11.19237 -0.265165
v 0.265165 11.19237 0
v -0.265165 11.19237 0
v 0 11.19237 0.265165
vn 1 0 0
vn 0 0 -1
vn 0.816497 0.57735 0
vn 0 0.57735 -0.816497
vn 0 0 1
vn -1 0 0
vn 0 0.57735 0.816497
vn -0.816497 0.57735 0
vn 0 0 -1
vn 1 0 0
vn -1 0 0
vn 0 0 1
usemtl object_012EB7EC_material_0
vt 0 -0.8745098
vt 0.9960784 -0.8745098
vt 0 -0.7647059
vt 0.9960784 -0.7647059
vt 0.9960784 -0.8745098
vt 0.9960784 -0.7647059
vt 0 -0.8745098
vt 0 -0.7647059
vt 0 -0.9843137
vt 0 -0.8745098
vt 0.9960784 -0.9843137
vt 0.9960784 -0.8745098
vt 0 -0.8745098
vt 0.9960784 -0.8745098
vt 0 -0.9843137
vt 0.9960784 -0.9843137
vt 0.01176471 -0.9843137
vt 0.05882353 -0.8745098
vt 0.01176471 -0.8745098
vt 0.05882353 -0.7647059
vt 0.01176471 -0.7647059
vt 0.05882353 -0.8745098
vt 0.01176471 -0.8745098
vt 0.05882353 -0.9843137
vt 0.01176471 -0.9843137
vt 0.05882353 -0.8745098
f 3/1/3 10/2/10 4/3/4
f 4/3/4 10/2/10 9/4/9

f 9/6/9 11/5/11 8/7/8
f 9/6/9 8/7/8 4/8/4
f 4/8/4 8/7/8 7/9/7
f 4/8/4 7/9/7 3/10/3
f 3/10/3 7/9/7 12/11/12
f 3/10/3 12/11/12 10/12/10

f 8/13/8 11/14/11 7/15/7
f 7/15/7 11/14/11 12/16/12

f 6/18/6 12/17/12 11/19/11
f 6/18/6 11/19/11 2/20/2
f 2/20/2 11/19/11 9/21/9
f 2/20/2 9/21/9 1/22/1
f 1/22/1 9/21/9 10/23/10
f 1/22/1 10/23/10 5/24/5
f 5/24/5 10/23/10 12/25/12
f 5/24/5 12/25/12 6/26/6


g object_012EB590
v 9.999999E-07 13.11183 6.500597
v 0 11.49049 0.262807
v 0 14.6917 0.262807
v 0.291631 13.91516 4.072258
v 0.291631 12.22774 4.072258
v -0.358174 11.79997 2.257501
v -0.358174 14.24881 2.257501
vn -0.992866 0 -0.119238
vn -0.984258 0 -0.176737
vn -0.984258 0 -0.176737
vn -0.988676 0 0.150064
vn -0.987796 0 0.155752
vn -0.9987 0 0.050974
vn -0.998714 0 0.050696
usemtl object_012EB7EC_material_0
vt 1 -0.2431373
vt 0.6078432 -0.1176471
vt 0.6078432 -0.3843137
vt 0.3176471 -0.06666667
vt 0.3176471 -0.4509804
vt 0 0
vt 0 -0.4980392
f 13/27/13 16/28/16 17/29/17
f 17/29/17 16/28/16 19/30/19
f 17/29/17 19/30/19 18/31/18
f 18/31/18 19/30/19 15/32/15
f 18/31/18 15/32/15 14/33/14


